<!DOCTYPE svg PUBLIC "-//W3C//DTD SVG 1.1//EN" "http://www.w3.org/Graphics/SVG/1.1/DTD/svg11.dtd">
<!-- Uploaded to: SVG Repo, www.svgrepo.com, Transformed by: SVG Repo Mixer Tools -->
<svg height="216px" width="216px" version="1.1" id="Layer_1" xmlns="http://www.w3.org/2000/svg" xmlns:xlink="http://www.w3.org/1999/xlink" viewBox="-15.36 -15.36 542.72 542.72" xml:space="preserve" fill="#ffffff" stroke="#ffffff" stroke-width="9.216">
<g id="SVGRepo_bgCarrier" stroke-width="0"/>
<g id="SVGRepo_tracerCarrier" stroke-linecap="round" stroke-linejoin="round"/>
<g id="SVGRepo_iconCarrier"> <path style="fill:#000000;" d="M150.973,391.969c-12.429,0-22.506,10.075-22.506,22.506v75.02c0,12.428,10.077,22.506,22.506,22.506 c12.429,0,22.506-10.078,22.506-22.506v-75.02C173.478,402.044,163.402,391.969,150.973,391.969z"/> <path style="fill:#000000;" d="M361.027,391.969c-12.429,0-22.506,10.075-22.506,22.506v75.02c0,12.428,10.077,22.506,22.506,22.506 c12.429,0,22.506-10.078,22.506-22.506v-75.02C383.533,402.044,373.457,391.969,361.027,391.969z"/> <path style="fill:#cad2c5;" d="M488.561,232.561c0-21.008-6.908-40.845-19.669-57.045c2.953-20.411-0.983-41.042-11.487-59.235 C446.902,98.088,431,84.364,411.849,76.714c-7.649-19.156-21.373-35.054-39.567-45.558c-14.045-8.108-30.008-12.395-46.164-12.395 c-4.371,0-8.732,0.309-13.052,0.923C296.86,6.914,277.016,0,256,0c-21.017,0-40.86,6.914-57.064,19.687 c-4.321-0.615-8.683-0.926-13.056-0.926c-16.152,0-32.113,4.288-46.158,12.395c-18.191,10.501-31.918,26.402-39.567,45.558 c-19.156,7.649-35.054,21.373-45.558,39.567c-10.503,18.191-14.438,38.824-11.484,59.235 c-12.764,16.201-19.673,36.039-19.673,57.045s6.906,40.842,19.67,57.043c-2.951,20.408,0.984,41.042,11.487,59.237 c10.503,18.192,26.402,31.918,45.556,39.564c7.65,19.156,21.375,35.055,39.567,45.559c14.042,8.107,30.003,12.393,46.158,12.393 c4.374,0,8.735-0.311,13.056-0.924c16.207,12.776,36.05,19.688,57.066,19.688c21.014,0,40.859-6.915,57.063-19.687 c4.321,0.612,8.681,0.923,13.053,0.923c0.003,0,0.003,0,0.005,0c16.15,0,32.111-4.287,46.16-12.393 c18.194-10.506,31.918-26.407,39.567-45.558c19.153-7.647,35.052-21.373,45.556-39.565c10.504-18.195,14.44-38.829,11.487-59.237 C481.655,273.403,488.561,253.566,488.561,232.561z"/> <path style="fill:#84a98c;" d="M488.561,232.561c0-21.008-6.908-40.845-19.669-57.045c2.953-20.411-0.983-41.042-11.487-59.235 C446.902,98.088,431,84.364,411.849,76.714c-7.649-19.156-21.373-35.054-39.567-45.558c-14.045-8.108-30.008-12.395-46.164-12.395 c-4.371,0-8.732,0.309-13.052,0.923C296.86,6.914,277.016,0,256,0v465.122c21.014,0,40.859-6.915,57.063-19.687 c4.321,0.612,8.681,0.923,13.053,0.923c0.003,0,0.003,0,0.005,0c16.15,0,32.111-4.287,46.16-12.393 c18.194-10.506,31.918-26.407,39.567-45.558c19.153-7.647,35.052-21.373,45.556-39.565c10.504-18.195,14.44-38.829,11.487-59.237 C481.655,273.403,488.561,253.566,488.561,232.561z"/> <path style="fill:#000000;" d="M379.587,234.295l-41.685-41.685c-4.927-40.829-39.766-72.578-81.902-72.578 s-76.975,31.75-81.902,72.578l-41.685,41.685c-8.789,8.789-8.789,23.039,0,31.828c4.395,4.396,10.155,6.594,15.913,6.594 c5.76,0,11.52-2.198,15.913-6.594l9.238-9.236v5.682c0,45.501,37.019,82.522,82.522,82.522s82.522-37.021,82.522-82.522v-5.682 l9.238,9.236c4.395,4.396,10.155,6.594,15.913,6.594c5.76,0,11.52-2.198,15.913-6.594 C388.378,257.335,388.378,243.086,379.587,234.295z"/> <path style="fill:#000000;" d="M379.587,234.295l-41.685-41.685c-4.927-40.829-39.766-72.578-81.902-72.578V345.09 c45.502,0,82.522-37.021,82.522-82.522v-5.682l9.238,9.236c4.395,4.396,10.155,6.594,15.913,6.594c5.76,0,11.52-2.198,15.913-6.594 C388.378,257.335,388.378,243.086,379.587,234.295z"/> </g>
</svg>